<svg viewBox="-0.4406 36.6725 334.9879 184.4094" width="334.9879" height="184.4094">
  <g data-v-6805eed4="" fill="#35495e" class="iconlinesvg-g iconlinesvg" transform="matrix(2.3529391288757324, 0, 0, 3.4659519195556636, -0.44057799042132473, 36.67245919514386)" style="">
    <g class="tp-name" transform="matrix(1,0,0,1,0,0)" opacity="1">
      <g transform="translate(0, 0)">
        <g data-gra="path-name" fill="#35495e" transform="scale(1)">
          <path d="M13.75-35.20L22.93-35.20L22.93-38.50L1.10-38.50L1.10-35.20L10.29-35.20L10.29 0L13.75 0Z" transform="translate(-1.1, 38.5)"></path>
        </g>
      </g>
      <g transform="translate(25, 0)">
        <g data-gra="path-name" fill="#35495e" transform="scale(1)">
          <path d="M6.21-24.70L4.40-27.50L3.30-27.50L3.30 0L6.60 0L6.60-19.58C6.60-20.24 6.71-20.84 6.99-21.45C7.65-23.05 9.19-24.36 11.38-24.36L14.69-24.36L14.69-28.05L12.76-28.05C9.79-28.05 7.54-26.51 6.21-24.70Z" transform="translate(-3.3, 38.5)"></path>
        </g>
      </g>
      <g transform="translate(40, 2.2174381658324194)">
        <g>
          <g class="imagesvg">
            <g>
              <rect fill="#35495e" fill-opacity="0" stroke-width="2" x="0" y="0" width="29.567892486255207" height="34.61512366833516" class="image-rect"></rect>
              <svg filter="url(#colors1643227896)" x="0" y="0" width="29.567892486255207" height="34.61512366833516" filtersec="colorsf273402756" class="image-svg-svg primary" style="overflow: visible;">
                <svg xmlns="http://www.w3.org/2000/svg" viewBox="0.6138558387756348 0.3410000801086426 83.28719329833984 97.50399780273438">
                  <path fill="#333333" d="M82.685 76.951L54.83 7.841l-.27-.4c-2.545-4.423-7.1-7.1-12.323-7.1s-9.77 2.684-12.316 7.1l-.131.269L1.928 76.95C-.218 81.906.32 87.53 3.135 91.821c2.546 3.885 6.693 6.024 11.247 6.024h55.98c4.554 0 8.57-2.008 11.116-5.762 2.684-4.147 3.215-9.908 1.207-15.132zM14.651 63.29l21.294-52.633c1.338-2.277 3.746-3.615 6.43-3.615s4.955 1.338 6.431 3.615l11.116 27.586C49.476 52.305 33.136 61.951 14.652 63.29z"></path>
                </svg>
              </svg>
              <defs>
                <filter id="colors1643227896">
                  <feColorMatrix type="matrix" values="0 0 0 0 0.25390625  0 0 0 0 0.71875  0 0 0 0 0.51171875  0 0 0 1 0" class="icon-fecolormatrix"></feColorMatrix>
                </filter>
              </defs>
            </g>
          </g>
        </g>
      </g>
      <g transform="translate(73, 0)">
        <g data-gra="path-name" fill="#35495e" transform="scale(1)">
          <path d="M4.13-34.10L7.97-34.10L7.97-38.50L4.13-38.50ZM4.40 0L7.70 0L7.70-27.50L4.40-27.50Z" transform="translate(-4.125, 38.5)"></path>
        </g>
      </g>
      <g transform="translate(80, 0)">
        <g data-gra="path-name" fill="#35495e" transform="scale(1)">
          <path d="M6.21-24.70L4.40-27.50L3.30-27.50L3.30 0L6.60 0L6.60-20.13C6.60-20.79 6.71-21.39 6.99-22C7.65-23.59 9.19-24.91 11.38-24.91L13.59-24.91C14.24-24.91 14.85-24.80 15.46-24.53C17.05-23.87 18.37-22.33 18.37-20.13L18.37 0L21.67 0L21.67-19.96C21.67-21.07 21.50-22.11 21.07-23.10C19.91-25.80 17.32-28.05 13.59-28.05L12.76-28.05C9.79-28.05 7.54-26.51 6.21-24.70Z" transform="translate(-3.3, 38.5)"></path>
        </g>
      </g>
      <g transform="translate(102, 0)">
        <g data-gra="path-name" fill="#35495e" transform="scale(1)">
          <path d="M13.59 0.55C14.69 0.55 15.73 0.33 16.72-0.11C19.41-1.26 21.67-3.79 21.67-7.54L21.67-8.63L18.37-9.19L18.37-7.37C18.37-6.71 18.26-6.11 17.98-5.50C17.32-3.90 15.79-2.58 13.59-2.58L11.38-2.58C10.72-2.58 10.12-2.69 9.52-2.97C7.92-3.63 6.60-5.17 6.60-7.37L6.60-13.47L21.67-13.47L21.67-19.96C21.67-21.07 21.50-22.11 21.07-23.10C19.91-25.80 17.32-28.05 13.59-28.05L11.38-28.05C10.29-28.05 9.24-27.83 8.25-27.39C5.55-26.23 3.30-23.71 3.30-19.96L3.30-7.54C3.30-6.43 3.52-5.39 3.96-4.40C5.12-1.71 7.65 0.55 11.38 0.55ZM18.37-20.13L18.37-16.06L6.60-16.06L6.60-20.13C6.60-20.79 6.71-21.39 6.99-22C7.65-23.59 9.19-24.91 11.38-24.91L13.59-24.91C14.24-24.91 14.85-24.80 15.46-24.53C17.05-23.87 18.37-22.33 18.37-20.13Z" transform="translate(-3.3, 38.5)"></path>
        </g>
      </g>
      <g transform="translate(124, 0)">
        <g data-gra="path-name" fill="#35495e" transform="scale(1)">
          <path d="M13.59 0.55C14.69 0.55 15.73 0.33 16.72-0.11C19.41-1.26 21.67-3.79 21.67-7.54L21.67-8.63L18.37-9.19L18.37-7.37C18.37-6.71 18.26-6.11 17.98-5.50C17.32-3.90 15.79-2.58 13.59-2.58L11.38-2.58C10.72-2.58 10.12-2.69 9.52-2.97C7.92-3.63 6.60-5.17 6.60-7.37L6.60-13.47L21.67-13.47L21.67-19.96C21.67-21.07 21.50-22.11 21.07-23.10C19.91-25.80 17.32-28.05 13.59-28.05L11.38-28.05C10.29-28.05 9.24-27.83 8.25-27.39C5.55-26.23 3.30-23.71 3.30-19.96L3.30-7.54C3.30-6.43 3.52-5.39 3.96-4.40C5.12-1.71 7.65 0.55 11.38 0.55ZM18.37-20.13L18.37-16.06L6.60-16.06L6.60-20.13C6.60-20.79 6.71-21.39 6.99-22C7.65-23.59 9.19-24.91 11.38-24.91L13.59-24.91C14.24-24.91 14.85-24.80 15.46-24.53C17.05-23.87 18.37-22.33 18.37-20.13Z" transform="translate(-3.3, 38.5)"></path>
        </g>
      </g>
    </g>
    <g data-gra="path-slogan" fill-rule="" class="tp-slogan" fill="#35495e" transform="matrix(1,0,0,1,5,45.04999923706055)" opacity="1">
      <rect x="0" height="1" y="3.580000400543213" width="14.59499740600586"></rect>
      <rect height="1" y="3.580000400543213" width="14.59499740600586" x="117.77499771118164"></rect>
      <g transform="translate(17.59499740600586,0)">
        <g transform="scale(1)">
          <path d="M1.10-1.72L0.50-1.02C0.85-0.66 1.26-0.38 1.73-0.17C2.20 0.04 2.71 0.14 3.26 0.14C3.68 0.14 4.05 0.09 4.38-0.03C4.71-0.15 4.99-0.31 5.22-0.51C5.45-0.71 5.63-0.95 5.75-1.22C5.88-1.50 5.94-1.79 5.94-2.10C5.94-2.39 5.90-2.64 5.81-2.86C5.73-3.08 5.62-3.27 5.47-3.44C5.33-3.60 5.16-3.75 4.96-3.87C4.76-3.99 4.54-4.10 4.32-4.20L3.20-4.68C3.04-4.74 2.89-4.81 2.74-4.89C2.58-4.97 2.44-5.05 2.32-5.15C2.19-5.25 2.09-5.37 2.01-5.50C1.93-5.63 1.90-5.80 1.90-5.99C1.90-6.35 2.03-6.63 2.30-6.83C2.57-7.04 2.92-7.14 3.36-7.14C3.73-7.14 4.06-7.07 4.35-6.94C4.64-6.81 4.91-6.63 5.15-6.40L5.69-7.04C5.41-7.33 5.07-7.57 4.67-7.75C4.27-7.93 3.83-8.02 3.36-8.02C3-8.02 2.67-7.96 2.37-7.86C2.07-7.76 1.81-7.61 1.59-7.42C1.37-7.23 1.20-7.01 1.07-6.76C0.95-6.50 0.89-6.22 0.89-5.93C0.89-5.64 0.94-5.39 1.03-5.17C1.13-4.95 1.25-4.76 1.40-4.60C1.56-4.44 1.73-4.30 1.92-4.19C2.11-4.08 2.30-3.98 2.48-3.90L3.61-3.41C3.80-3.32 3.97-3.24 4.13-3.16C4.29-3.08 4.43-2.99 4.54-2.89C4.66-2.79 4.75-2.67 4.82-2.53C4.89-2.39 4.92-2.22 4.92-2.02C4.92-1.63 4.78-1.32 4.49-1.09C4.20-0.85 3.80-0.73 3.28-0.73C2.87-0.73 2.47-0.82 2.09-1.00C1.71-1.18 1.38-1.42 1.10-1.72ZM7.49-7.87L7.49 0L12.14 0L12.14-0.85L8.48-0.85L8.48-3.71L11.47-3.71L11.47-4.56L8.48-4.56L8.48-7.03L12.02-7.03L12.02-7.87ZM13.81-7.87L13.81 0L18.25 0L18.25-0.85L14.81-0.85L14.81-7.87ZM19.64-7.87L19.64 0L24.30 0L24.30-0.85L20.64-0.85L20.64-3.71L23.63-3.71L23.63-4.56L20.64-4.56L20.64-7.03L24.18-7.03L24.18-7.87ZM25.51-3.94C25.51-3.30 25.60-2.72 25.77-2.21C25.94-1.71 26.18-1.28 26.49-0.93C26.80-0.58 27.16-0.32 27.58-0.13C28.00 0.05 28.46 0.14 28.96 0.14C29.46 0.14 29.91 0.04 30.30-0.16C30.69-0.36 31.04-0.64 31.36-1.00L30.79-1.61C30.54-1.33 30.27-1.11 29.98-0.96C29.70-0.81 29.36-0.73 28.98-0.73C28.60-0.73 28.27-0.81 27.97-0.96C27.67-1.11 27.41-1.33 27.20-1.61C27.00-1.89 26.83-2.23 26.72-2.62C26.60-3.02 26.54-3.46 26.54-3.96C26.54-4.45 26.60-4.89 26.72-5.28C26.84-5.67 27.01-6.01 27.23-6.28C27.44-6.56 27.70-6.77 28.01-6.92C28.31-7.07 28.65-7.14 29.03-7.14C29.36-7.14 29.66-7.07 29.91-6.94C30.16-6.81 30.39-6.63 30.60-6.41L31.16-7.04C30.93-7.30 30.64-7.53 30.28-7.72C29.92-7.92 29.50-8.02 29.02-8.02C28.51-8.02 28.05-7.92 27.62-7.73C27.19-7.55 26.82-7.28 26.51-6.92C26.20-6.57 25.95-6.14 25.78-5.64C25.60-5.14 25.51-4.57 25.51-3.94ZM34.24-7.03L34.24 0L35.24 0L35.24-7.03L37.62-7.03L37.62-7.87L31.86-7.87L31.86-7.03ZM39.04-7.87L39.04 0L40.03 0L40.03-7.87ZM45.10 0.14C45.59 0.14 46.05 0.05 46.46-0.14C46.87-0.34 47.23-0.61 47.53-0.97C47.83-1.32 48.06-1.75 48.22-2.26C48.39-2.77 48.47-3.34 48.47-3.97C48.47-4.60 48.39-5.16 48.22-5.66C48.06-6.16 47.83-6.58 47.53-6.93C47.23-7.28 46.87-7.55 46.46-7.73C46.05-7.92 45.59-8.02 45.10-8.02C44.60-8.02 44.15-7.92 43.73-7.74C43.32-7.56 42.97-7.29 42.67-6.94C42.38-6.59 42.15-6.17 41.98-5.67C41.82-5.17 41.74-4.60 41.74-3.97C41.74-3.34 41.82-2.77 41.98-2.26C42.15-1.75 42.38-1.32 42.67-0.97C42.97-0.61 43.32-0.34 43.73-0.14C44.15 0.05 44.60 0.14 45.10 0.14ZM45.10-0.73C44.74-0.73 44.43-0.81 44.14-0.96C43.86-1.11 43.61-1.33 43.41-1.61C43.21-1.90 43.05-2.24 42.94-2.63C42.82-3.03 42.77-3.48 42.77-3.97C42.77-4.46 42.82-4.90 42.94-5.29C43.05-5.68 43.21-6.02 43.41-6.29C43.61-6.56 43.86-6.77 44.14-6.92C44.43-7.07 44.74-7.14 45.10-7.14C45.45-7.14 45.77-7.07 46.05-6.92C46.33-6.77 46.58-6.56 46.78-6.29C46.99-6.02 47.14-5.68 47.26-5.29C47.37-4.90 47.42-4.46 47.42-3.97C47.42-3.48 47.37-3.03 47.26-2.63C47.14-2.24 46.99-1.90 46.78-1.61C46.58-1.33 46.33-1.11 46.05-0.96C45.77-0.81 45.45-0.73 45.10-0.73ZM50.16-7.87L50.16 0L51.11 0L51.11-4.12C51.11-4.53 51.09-4.95 51.07-5.36C51.04-5.77 51.01-6.18 50.98-6.58L51.02-6.58L51.88-4.96L54.73 0L55.76 0L55.76-7.87L54.82-7.87L54.82-3.80C54.82-3.39 54.83-2.97 54.86-2.54C54.89-2.11 54.91-1.70 54.94-1.30L54.89-1.30L54.04-2.93L51.19-7.87ZM60.37-1.72L59.77-1.02C60.12-0.66 60.52-0.38 61.00-0.17C61.47 0.04 61.98 0.14 62.53 0.14C62.95 0.14 63.32 0.09 63.65-0.03C63.98-0.15 64.26-0.31 64.49-0.51C64.72-0.71 64.90-0.95 65.02-1.22C65.15-1.50 65.21-1.79 65.21-2.10C65.21-2.39 65.17-2.64 65.08-2.86C65.00-3.08 64.88-3.27 64.74-3.44C64.60-3.60 64.42-3.75 64.22-3.87C64.02-3.99 63.81-4.10 63.59-4.20L62.47-4.68C62.31-4.74 62.16-4.81 62.00-4.89C61.85-4.97 61.71-5.05 61.58-5.15C61.46-5.25 61.35-5.37 61.28-5.50C61.20-5.63 61.16-5.80 61.16-5.99C61.16-6.35 61.30-6.63 61.57-6.83C61.83-7.04 62.19-7.14 62.63-7.14C63.00-7.14 63.33-7.07 63.62-6.94C63.91-6.81 64.18-6.63 64.42-6.40L64.96-7.04C64.68-7.33 64.34-7.57 63.94-7.75C63.54-7.93 63.10-8.02 62.63-8.02C62.27-8.02 61.94-7.96 61.64-7.86C61.34-7.76 61.08-7.61 60.86-7.42C60.64-7.23 60.47-7.01 60.34-6.76C60.22-6.50 60.16-6.22 60.16-5.93C60.16-5.64 60.20-5.39 60.30-5.17C60.40-4.95 60.52-4.76 60.67-4.60C60.82-4.44 61.00-4.30 61.19-4.19C61.38-4.08 61.57-3.98 61.75-3.90L62.88-3.41C63.06-3.32 63.24-3.24 63.40-3.16C63.56-3.08 63.69-2.99 63.81-2.89C63.93-2.79 64.02-2.67 64.09-2.53C64.15-2.39 64.19-2.22 64.19-2.02C64.19-1.63 64.04-1.32 63.76-1.09C63.47-0.85 63.06-0.73 62.54-0.73C62.14-0.73 61.74-0.82 61.36-1.00C60.98-1.18 60.65-1.42 60.37-1.72ZM67.94-3.05L67.94 0L68.95 0L68.95-3.05L71.32-7.87L70.27-7.87L69.26-5.65C69.14-5.36 69.02-5.08 68.88-4.80C68.74-4.52 68.61-4.23 68.47-3.94L68.42-3.94C68.29-4.23 68.16-4.52 68.04-4.80C67.92-5.08 67.80-5.36 67.67-5.65L66.65-7.87L65.58-7.87ZM72.22-1.72L71.62-1.02C71.96-0.66 72.37-0.38 72.84-0.17C73.31 0.04 73.82 0.14 74.38 0.14C74.79 0.14 75.16 0.09 75.49-0.03C75.82-0.15 76.10-0.31 76.33-0.51C76.56-0.71 76.74-0.95 76.87-1.22C76.99-1.50 77.05-1.79 77.05-2.10C77.05-2.39 77.01-2.64 76.93-2.86C76.84-3.08 76.73-3.27 76.58-3.44C76.44-3.60 76.27-3.75 76.07-3.87C75.87-3.99 75.66-4.10 75.43-4.20L74.32-4.68C74.16-4.74 74.00-4.81 73.85-4.89C73.70-4.97 73.56-5.05 73.43-5.15C73.30-5.25 73.20-5.37 73.12-5.50C73.05-5.63 73.01-5.80 73.01-5.99C73.01-6.35 73.14-6.63 73.41-6.83C73.68-7.04 74.03-7.14 74.47-7.14C74.84-7.14 75.17-7.07 75.46-6.94C75.75-6.81 76.02-6.63 76.26-6.40L76.80-7.04C76.52-7.33 76.18-7.57 75.78-7.75C75.38-7.93 74.94-8.02 74.47-8.02C74.11-8.02 73.78-7.96 73.48-7.86C73.18-7.76 72.92-7.61 72.70-7.42C72.48-7.23 72.31-7.01 72.19-6.76C72.06-6.50 72.00-6.22 72.00-5.93C72.00-5.64 72.05-5.39 72.14-5.17C72.24-4.95 72.36-4.76 72.52-4.60C72.67-4.44 72.84-4.30 73.03-4.19C73.22-4.08 73.41-3.98 73.60-3.90L74.72-3.41C74.91-3.32 75.08-3.24 75.24-3.16C75.40-3.08 75.54-2.99 75.65-2.89C75.77-2.79 75.86-2.67 75.93-2.53C76.00-2.39 76.03-2.22 76.03-2.02C76.03-1.63 75.89-1.32 75.60-1.09C75.31-0.85 74.91-0.73 74.39-0.73C73.98-0.73 73.59-0.82 73.21-1.00C72.83-1.18 72.50-1.42 72.22-1.72ZM79.99-7.03L79.99 0L81.00 0L81.00-7.03L83.38-7.03L83.38-7.87L77.62-7.87L77.62-7.03ZM84.79-7.87L84.79 0L89.45 0L89.45-0.85L85.79-0.85L85.79-3.71L88.78-3.71L88.78-4.56L85.79-4.56L85.79-7.03L89.33-7.03L89.33-7.87ZM91.12-7.87L91.12 0L92.04 0L92.04-4.33C92.04-4.68 92.02-5.07 91.99-5.50C91.96-5.92 91.93-6.31 91.91-6.66L91.96-6.66L92.58-4.91L94.10-0.79L94.67-0.79L96.18-4.91L96.82-6.66L96.86-6.66C96.83-6.31 96.80-5.92 96.77-5.50C96.75-5.07 96.73-4.68 96.73-4.33L96.73 0L97.68 0L97.68-7.87L96.50-7.87L94.99-3.65L94.44-2.04L94.39-2.04L93.82-3.65L92.29-7.87Z" transform="translate(-0.504, 8.016)"></path>
        </g>
      </g>
    </g>
  </g>
</svg>